<svg xmlns="http://www.w3.org/2000/svg" width="291.492" height="43.189" viewBox="0 0 291.492 43.189">
  <g id="Group_186686" data-name="Group 186686" transform="translate(-214 -121.3)">
    <path id="Path_14427" data-name="Path 14427" d="M2.016,0H9.072V-14.112L13.9,0h5.9l4.788-14V0h7.056V-25.38h-8.5L16.92-8.892,10.548-25.38H2.016ZM44.748-14.868A2.771,2.771,0,0,1,47.772-12.1H41.544A3.047,3.047,0,0,1,44.748-14.868ZM54.54-6.984H47.016A2.634,2.634,0,0,1,44.5-5.4c-1.584,0-2.844-.936-2.988-3.276H54.864a12.79,12.79,0,0,0,.108-1.656c0-6.264-4.212-10.116-10.188-10.116-6.048,0-10.26,3.924-10.26,10.332,0,6.444,4.284,10.368,10.26,10.368C49.824.252,53.6-2.844,54.54-6.984ZM85.356,0h7.056V-11.772c0-5.292-3.06-8.6-8.172-8.6a8.107,8.107,0,0,0-6.732,3.708,7.4,7.4,0,0,0-6.732-3.708,6.96,6.96,0,0,0-5.868,2.844V-20.2H57.852V0h7.056V-10.836a3.115,3.115,0,0,1,3.384-3.42,3.1,3.1,0,0,1,3.312,3.42V0H78.66V-10.836a3.105,3.105,0,0,1,3.348-3.42,3.122,3.122,0,0,1,3.348,3.42Zm19.98-14.868A2.771,2.771,0,0,1,108.36-12.1h-6.228A3.047,3.047,0,0,1,105.336-14.868Zm9.792,7.884H107.6a2.634,2.634,0,0,1-2.52,1.584c-1.584,0-2.844-.936-2.988-3.276h13.356a12.789,12.789,0,0,0,.108-1.656c0-6.264-4.212-10.116-10.188-10.116-6.048,0-10.26,3.924-10.26,10.332C95.112-3.672,99.4.252,105.372.252,110.412.252,114.192-2.844,115.128-6.984ZM140.328,0h8.532l-9.792-13.068,9.324-12.312h-8.136l-7.884,10.944V-25.38h-7.056V0h7.056V-11.124Zm31.14-10.116c0-6.408-4.572-10.332-10.584-10.332S150.3-16.524,150.3-10.116c0,6.444,4.536,10.368,10.548,10.368S171.468-3.672,171.468-10.116Zm-13.968,0c0-2.88,1.584-4.212,3.384-4.212S164.3-13,164.3-10.116c0,2.916-1.656,4.248-3.456,4.248C159.012-5.868,157.5-7.2,157.5-10.116ZM188.1,0h7.056V-11.772c0-5.292-2.916-8.6-7.6-8.6a7.287,7.287,0,0,0-6.156,3.06V-20.2h-7.056V0H181.4V-10.836c0-2.34,1.3-3.708,3.384-3.708,2.016,0,3.312,1.368,3.312,3.708Zm9.792-10.116c0,6.444,3.816,10.368,8.6,10.368a6.553,6.553,0,0,0,5.94-3.06V-.216c0,3.132-1.62,4.032-3.6,4.032-1.8,0-3.024-.756-3.312-2.052h-6.948c.5,5,4.392,8.172,10.692,8.172,7.272,0,10.224-4.752,10.224-10.152V-20.2h-7.056v2.808a6.553,6.553,0,0,0-5.94-3.06C201.708-20.448,197.892-16.56,197.892-10.116Zm14.544,0c0,2.736-1.692,4.212-3.672,4.212-2.016,0-3.672-1.512-3.672-4.212,0-2.736,1.656-4.176,3.672-4.176C210.744-14.292,212.436-12.816,212.436-10.116Z" transform="translate(286 154.305)" fill="#fff"/>
    <g id="Group_186627" data-name="Group 186627" transform="translate(-55.433 -219.538)">
      <path id="Path_14364" data-name="Path 14364" d="M277.826,352.686l3.462,19.118h-8.255l-3.462-29.854,27.415,23.192,27.607-23.192-3.462,29.9h-8.255l3.462-18.783-19.352,17.244Z" transform="translate(0.101 0.811)" fill="#88630b"/>
      <rect id="Rectangle_193893" data-name="Rectangle 193893" width="47.999" height="7.871" transform="translate(273.235 376.155)" fill="#f6bb2c"/>
      <path id="Path_14365" data-name="Path 14365" d="M269.433,340.934l27.655,21.376,27.8-21.472-1.294,11.311-26.5,20.525-26.361-21Z" fill="#f6bb2c"/>
    </g>
  </g>
</svg>
